<svg xmlns="http://www.w3.org/2000/svg" width="59.988" height="39.853" viewBox="0 0 59.988 39.853"><g id="Компонент_3_5" data-name="Компонент 3 – 5" transform="translate(1 1)" fill="none" stroke="#fff" stroke-miterlimit="10" stroke-width="2"><path id="Контур_64" data-name="Контур 64" d="M493.169 509.086a4.823 4.823 0 01-4.854 4.892 4.885 4.885 0 11-.007-9.77 4.8 4.8 0 014.861 4.878z" transform="translate(-472.276 -476.125)"/><path id="Контур_65" data-name="Контур 65" d="M531.214 509.086a4.823 4.823 0 01-4.854 4.892 4.885 4.885 0 11-.007-9.77 4.8 4.8 0 014.861 4.878z" transform="translate(-481.295 -476.125)"/><path id="Контур_66" data-name="Контур 66" d="M482.252 499.889a3.285 3.285 0 01-3.285-3.285v-25.92a3.285 3.285 0 013.285-3.285H508.4c.756 0 1.68.613 1.68 1.37v11.558" transform="translate(-471.231 -467.398)"/><path id="Линия_16" data-name="Линия 16" transform="translate(20.893 32.491)" d="M19.231 0H0"/><path id="Контур_67" data-name="Контур 67" d="M542.3 491.255v11a3.285 3.285 0 01-3.285 3.285h-4.753" transform="translate(-484.339 -473.054)"/><path id="Прямоугольник_450" data-name="Прямоугольник 450" d="M3.537 0h3.212a12.4 12.4 0 0112.4 12.4v0a3.537 3.537 0 01-3.537 3.537H3.537A3.537 3.537 0 010 12.4V3.537A3.537 3.537 0 013.537 0z" transform="translate(38.84 6.865)"/><path id="Линия_17" data-name="Линия 17" transform="translate(0 8.149)" stroke-linecap="round" d="M0 0h20.732"/><path id="Линия_18" data-name="Линия 18" transform="translate(10.691 14.337)" stroke-linecap="round" d="M0 0h11.418"/><path id="Линия_19" data-name="Линия 19" transform="translate(2.204 19.289)" stroke-linecap="round" d="M0 0h17.252"/></g></svg>