<svg xmlns="http://www.w3.org/2000/svg" width="22.585" height="22.585" viewBox="0 0 22.585 22.585"><path id="Path_83" data-name="Path 83" d="M11.292.523a35.435 35.435 0 00-4.428.12 7.388 7.388 0 00-2.633.479A5.027 5.027 0 001.12 4.233a5.454 5.454 0 00-.478 2.633 81.761 81.761 0 000 8.856 7.379 7.379 0 00.478 2.633 5.026 5.026 0 003.111 3.111 7.379 7.379 0 002.633.478 81.534 81.534 0 008.856 0 7.379 7.379 0 002.633-.478 5.021 5.021 0 003.111-3.111 7.388 7.388 0 00.479-2.633c0-1.2.12-1.555.12-4.428a35.355 35.355 0 00-.12-4.428 7.389 7.389 0 00-.479-2.633 5.025 5.025 0 00-3.111-3.111A7.388 7.388 0 0015.72.643a35.435 35.435 0 00-4.428-.12m0 15.905a5.045 5.045 0 01-5.135-4.953v-.182a5.044 5.044 0 014.953-5.135h.182a5.045 5.045 0 015.135 4.953v.182a5 5 0 01-4.9 5.135h-.231m5.743-12.2a1.317 1.317 0 101.317 1.317h0a1.328 1.328 0 00-1.317-1.317" fill="none" stroke="#7f7f7f" stroke-miterlimit="10" stroke-width="1"/></svg>