<svg xmlns="http://www.w3.org/2000/svg" width="23.04" height="22.717" viewBox="0 0 23.04 22.717"><path id="Контур_100" data-name="Контур 100" d="M18.749 8.013a4.061 4.061 0 01-2.308-.781.886.886 0 00-.743-.074c-2.4 1.159-4.777 2.355-7.168 3.527a.682.682 0 00-.456.681c-.009.379.186.522.476.665q3.56 1.75 7.109 3.522a.7.7 0 00.856-.092 3.746 3.746 0 11-1.217 4.374 5.692 5.692 0 01-.269-1.6.663.663 0 00-.388-.66q-3.588-1.755-7.156-3.55c-.367-.184-.585-.008-.85.195a3.744 3.744 0 01-5.638-1.228 3.593 3.593 0 01.918-4.434 3.722 3.722 0 014.591-.161 1.033 1.033 0 001.292.117c2.2-1.127 4.429-2.211 6.657-3.29a.884.884 0 00.57-.944 3.755 3.755 0 113.724 3.728z" fill="none" stroke="#7f7f7f" stroke-miterlimit="10" stroke-width="1"/></svg>