<svg id="logo" xmlns="http://www.w3.org/2000/svg" width="128.123" height="71.091" viewBox="0 0 128.123 71.091"><g id="Сгруппировать_57" data-name="Сгруппировать 57" transform="translate(21 61)"><path id="Контур_46" data-name="Контур 46" d="M283.525 60.22a1.567 1.567 0 01-.143.771.593.593 0 01-.492.165.559.559 0 01-.425-.149.608.608 0 01-.143-.44c.011-.167.016-.294.016-.379l.082-2.663a.6.6 0 01.162-.433.655.655 0 01.453-.133h7.065a.663.663 0 01.455.133.579.579 0 01.154.433l.089 2.663c0 .1 0 .188.009.275l.009.121a.554.554 0 01-.155.431.666.666 0 01-.462.142.525.525 0 01-.448-.165 1.609 1.609 0 01-.137-.771l-.082-2.1H287.2v7.271h1.567a.75.75 0 01.5.133.53.53 0 01.155.424.594.594 0 01-.146.431.562.562 0 01-.423.151h-4.557a.555.555 0 01-.421-.151.587.587 0 01-.146-.431.515.515 0 01.159-.427.859.859 0 01.539-.129h1.518v-7.27H283.6z" transform="translate(-282.322 -56.692)"/><path id="Контур_47" data-name="Контур 47" d="M291.312 65.394h.544a1.28 1.28 0 01.675.129.472.472 0 01.194.427.531.531 0 01-.171.456 1.431 1.431 0 01-.746.126h-2.145a.632.632 0 01-.451-.145.583.583 0 01-.15-.436.5.5 0 01.175-.436 1.267 1.267 0 01.662-.121h.146v-7.271h-.13a1.24 1.24 0 01-.669-.129.515.515 0 01-.184-.452.579.579 0 01.15-.44.666.666 0 01.468-.142h2.047a1.677 1.677 0 01.824.126.527.527 0 01.175.456.482.482 0 01-.219.452 1.824 1.824 0 01-.828.129h-.366v2.808h3.89v-2.808h-.551a1.2 1.2 0 01-.662-.138.5.5 0 01-.2-.443.511.511 0 01.184-.456 1.941 1.941 0 01.9-.126h1.981a.607.607 0 01.443.145.577.577 0 01.152.436.532.532 0 01-.171.447 1.011 1.011 0 01-.608.135h-.2v7.271h.13a1.244 1.244 0 01.666.124.494.494 0 01.18.433.531.531 0 01-.171.456 1.555 1.555 0 01-.787.126H294.8a1.733 1.733 0 01-.837-.126.523.523 0 01-.178-.456.461.461 0 01.212-.436 1.819 1.819 0 01.8-.121h.4v-3.358h-3.89z" transform="translate(-277.035 -56.692)"/><path id="Контур_48" data-name="Контур 48" d="M296.6 66.532h-.38a.615.615 0 01-.443-.145.577.577 0 01-.152-.436.494.494 0 01.175-.44 1.7 1.7 0 01.8-.117h.521v-7.271h-.521a1.6 1.6 0 01-.79-.126.511.511 0 01-.184-.456.573.573 0 01.152-.44.648.648 0 01.459-.142h7.074a.525.525 0 01.419.165.723.723 0 01.141.48v1.906a1 1 0 01-.121.58.515.515 0 01-.439.161.525.525 0 01-.459-.177 1.608 1.608 0 01-.125-.8v-1.151h-4.322v2.72h2.129v-.429a1.119 1.119 0 01.118-.6.461.461 0 01.409-.17.423.423 0 01.394.183 1.756 1.756 0 01.111.778v1.5a1.661 1.661 0 01-.114.775.457.457 0 01-.407.168.42.42 0 01-.4-.193 1.718 1.718 0 01-.109-.75v-.284h-2.129v3.576h4.322v-1.312a1.608 1.608 0 01.125-.8.525.525 0 01.459-.177.514.514 0 01.435.165 1.1 1.1 0 01.125.626v2.034a.616.616 0 01-.146.443.542.542 0 01-.414.154z" transform="translate(-271.671 -56.692)"/><path id="Контур_49" data-name="Контур 49" d="M311.639 64.465l1.4-4.826a.624.624 0 01.166-.326.6.6 0 01.337-.069h.366a.6.6 0 01.337.073.592.592 0 01.175.291l1.58 4.857.8-6.414h-1.274a.932.932 0 01-.548-.129.476.476 0 01-.175-.411.5.5 0 01.166-.429 1.133 1.133 0 01.621-.121h2.623a.416.416 0 01.318.158.568.568 0 01.137.392.51.51 0 01-.153.408.7.7 0 01-.464.133h-.1l-1.151 8.067a.635.635 0 01-.093.332.277.277 0 01-.223.082h-.584a.48.48 0 01-.285-.073.593.593 0 01-.17-.275l-1.763-5.553-1.56 5.569a.473.473 0 01-.146.266.512.512 0 01-.293.066h-.609a.322.322 0 01-.239-.078.627.627 0 01-.111-.351l-1.235-8.053h-.1a.71.71 0 01-.476-.138.5.5 0 01-.157-.4.593.593 0 01.128-.4.4.4 0 01.318-.154h2.632a1.11 1.11 0 01.612.121.494.494 0 01.168.429.48.48 0 01-.175.411.918.918 0 01-.541.129h-1.146z" transform="translate(-261.15 -56.692)"/><path id="Контур_50" data-name="Контур 50" d="M324.585 61.856a5.328 5.328 0 01-1.235 3.629 4.215 4.215 0 01-6.308 0 5.963 5.963 0 01-.011-7.263 4.236 4.236 0 016.319.012 5.328 5.328 0 011.235 3.622zm-4.4 3.907a2.543 2.543 0 002.148-1.039 5.63 5.63 0 000-5.736 2.748 2.748 0 00-4.3-.009 5.685 5.685 0 00.009 5.744 2.536 2.536 0 002.148 1.04z" transform="translate(-255.52 -56.81)"/><path id="Контур_51" data-name="Контур 51" d="M325.145 65.394h.553a1.256 1.256 0 01.666.129.472.472 0 01.195.427.539.539 0 01-.17.452 1.141 1.141 0 01-.642.129h-2.728a.557.557 0 01-.423-.151.587.587 0 01-.146-.431.511.511 0 01.162-.427.865.865 0 01.535-.129h.741V58.05h-.471a1.723 1.723 0 01-.789-.113.467.467 0 01-.178-.427.55.55 0 01.141-.413.6.6 0 01.428-.137h3.426a10.756 10.756 0 011.856.117 2.785 2.785 0 011.037.4 2.584 2.584 0 01.857.961 2.725 2.725 0 01.312 1.284 2.362 2.362 0 01-.573 1.594 3.007 3.007 0 01-1.6.924 2.012 2.012 0 01.378.282 2.487 2.487 0 01.319.388l1.633 2.486h.269a1.123 1.123 0 01.625.124.5.5 0 01.171.433.6.6 0 01-.143.431.544.544 0 01-.418.151h-.919c-.266 0-.525-.2-.78-.582a.66.66 0 01-.073-.082l-1.56-2.347a3.543 3.543 0 00-.792-.929 1.462 1.462 0 00-.824-.209h-1.08zm0-7.343v3.26h1.681a2.946 2.946 0 001.709-.408 1.394 1.394 0 00.573-1.214 1.421 1.421 0 00-.56-1.227 2.811 2.811 0 00-1.672-.411z" transform="translate(-250.093 -56.692)"/><path id="Контур_52" data-name="Контур 52" d="M331.589 66.532h-1.649a.635.635 0 01-.451-.145.583.583 0 01-.15-.436.5.5 0 01.175-.436 1.267 1.267 0 01.662-.121h.146v-7.271h-.13a1.241 1.241 0 01-.669-.129.515.515 0 01-.184-.452.579.579 0 01.15-.44.669.669 0 01.467-.142h3.428a4.186 4.186 0 013.224 1.3 4.938 4.938 0 011.2 3.5 5.63 5.63 0 01-.346 1.993 4.739 4.739 0 01-1 1.615 3.568 3.568 0 01-1.481.915 7.339 7.339 0 01-2.247.287c-.109 0-.291-.005-.548-.016s-.456-.022-.597-.022zm0-1.138a12.208 12.208 0 001.016.047 4.12 4.12 0 002.928-.888 3.717 3.717 0 00.93-2.8 3.676 3.676 0 00-.933-2.8 4.277 4.277 0 00-2.989-.876c-.255 0-.448 0-.582.007s-.255.018-.369.034z" transform="translate(-244.688 -56.692)"/></g><path id="Контур_53" data-name="Контур 53" d="M391.453 23.725c0-3.533-.943-5.559-2.827-6.131a2.293 2.293 0 00-.852-.156 3.383 3.383 0 00-1.481.363c-.9.469-1.749 1.611-2.6 3.483q-3.433 9.117-3.859 26.391a5.52 5.52 0 00-2.648-.727 7.312 7.312 0 00-4.127 1.505 14.05 14.05 0 00-4.744 6.07 1.117 1.117 0 00-.327.269c-4.4 5.922-7.583 8.936-9.556 8.936q-1.886 0-1.886-5.144a24.031 24.031 0 01.225-3.014c1.3-2.7 1.929-4.623 1.929-5.87q0-1.713-1.076-1.715c-.717 0-1.346.988-1.8 2.858-1.121-1.818-2.064-2.806-2.872-3.066a7.543 7.543 0 00-1.8-.311 2.587 2.587 0 00-1.3.26c-2.378 1.092-4.129 3.17-5.34 6.287-.087.232-.164.463-.245.693a1.469 1.469 0 00-.113.137c-5.294 7.95-9.2 11.9-11.71 11.9a2.634 2.634 0 01-2.289-1.507 10.01 10.01 0 01-.806-4.209 19.193 19.193 0 01.4-3.741h.314a6.453 6.453 0 004.038-1.4 8.028 8.028 0 002.781-3.742 5.067 5.067 0 00.314-1.765 3.066 3.066 0 00-3.007-3.17 3.925 3.925 0 00-2.872 1.611 16.561 16.561 0 00-2.8 5.905 1.2 1.2 0 00-.159.069 11.323 11.323 0 01-3.186 1.974 5.97 5.97 0 01-1.346.208c-1.3 0-2.064-1.715-2.378-5.144a20.689 20.689 0 00-.359-2.286c-.268-1.04-.764-1.559-1.525-1.559-1.66 0-3.634 4.156-5.967 12.365L312.35 64.3c.27-3.168.9-7.429 1.8-12.832a1.048 1.048 0 00-.673-1.142h-.135a.8.8 0 00-.9.831c-.21 1.226-.4 2.379-.577 3.473a1.011 1.011 0 00-.1.111c-3.319 4.936-5.788 7.377-7.493 7.377-.941 0-1.749-.832-2.422-2.441a33.237 33.237 0 01-1.572-4.521 30.684 30.684 0 00-1.525-4.363 2.676 2.676 0 00-2.422-1.922c-2.916 0-5.564 4.986-7.942 15.014q-.336-4.051-.538-8.728a29.389 29.389 0 004.776-9.582.87.87 0 00.4.095.7.7 0 00.449-.156 1.778 1.778 0 00.987-1.507 1.673 1.673 0 00-1.013-1.449 59.546 59.546 0 001.844-11.04c.089-2.7.135-4.415.135-5.04a24.793 24.793 0 00-1.167-8.571c-.629-1.455-1.437-2.131-2.424-2.131a2.716 2.716 0 00-2.108 1.455q-3.144 5.89-3.638 24.149a64.892 64.892 0 00-3.026-.075c-1.435 0-2.872 0-4.4.1a40.8 40.8 0 003.635-9.3 29.877 29.877 0 00.986-6.286c0-2.339-.583-3.481-1.838-3.481-1.481 0-2.692 2.026-3.68 6.13a85.212 85.212 0 00-1.886 13.092c-4.756.417-8.121 1.04-10.14 1.924-1.614.727-2.422 1.765-2.422 3.012 0 .779.27 1.144.852 1.144a.152.152 0 00.135-.052c.494-.052.762-.415.762-.988v-.156c0-.156.179-.311.584-.623 2.108-1.2 5.429-1.974 10.05-2.287v.1c-.4 5.768-.627 11.535-.627 17.249q0 25.952 4.532 25.976c.718 0 1.076-.311 1.076-.986a1.257 1.257 0 00-.305-.873 1.128 1.128 0 00-.673-.209c-.089 0-.224-.1-.359-.26a5.188 5.188 0 01-.538-1.142 15.567 15.567 0 01-.719-2.6 66.37 66.37 0 01-1.121-11.014c-.09-3.792-.135-6.6-.135-8.313 0-7.066.224-13.092.673-18.026a69.947 69.947 0 014.621-.157c1.443 0 2.747.029 3.926.081q-.041 2.35-.043 4.887c0 2.028.044 4.105.089 6.183a1.39 1.39 0 00-.089.415 1.11 1.11 0 00.135.519c.313 9.924.987 14.86 2.019 14.86a.889.889 0 00.852-.78 64.39 64.39 0 014.621-15.481c.943-2.028 1.84-3.014 2.692-3.014.4 0 .808.519 1.211 1.611s.764 2.182 1.078 3.377a29.753 29.753 0 001.929 5.2q1.414 2.961 3.768 2.96c1.9 0 4.221-1.8 6.931-5.382a59.561 59.561 0 00-.695 7.408c0 1.715.359 2.6 1.165 2.6l.135-.052q.807 0 1.884-2.962c.4-1.092.9-2.649 1.526-4.676 1.84-5.974 3.232-9.559 4.173-10.806q.136.625.27 1.87a23.667 23.667 0 00.718 3.794 4.137 4.137 0 002.019 2.8 2.888 2.888 0 001.481.363 7.688 7.688 0 003.979-1.507 20.716 20.716 0 00-.3 3.377 12.028 12.028 0 001.122 5.4 4.193 4.193 0 003.635 2.443c2.75 0 6.3-3.02 10.632-9a20.194 20.194 0 00-.224 2.922c0 3.846.808 5.976 2.378 6.443l.494.052c2.557-.208 5.608-3.533 9.153-9.924.09 3.273.9 5.3 2.422 6.183a2.353 2.353 0 001.213.26c2.1 0 4.938-2.15 8.5-6.5a17.74 17.74 0 00-.336 3.328 21.315 21.315 0 00.673 5.2 3.281 3.281 0 00.852 1.611 1.735 1.735 0 00.9.623 3.354 3.354 0 00.673.052h.224c2.6-.831 5.923-4.934 9.916-12.312A102.964 102.964 0 00381.043 71c.9 5.247 2.243 7.844 4.038 7.844a2.966 2.966 0 001.84-.986 1.2 1.2 0 00.268-.832.956.956 0 00-.268-.623.672.672 0 00-.538-.311.9.9 0 00-.719.363 1.163 1.163 0 01-.583.311c-.135 0-.27 0-.314-.1-.987-.986-1.749-3.585-2.333-7.689a120.349 120.349 0 01-.9-14.547 135.445 135.445 0 006.551-15.535c2.246-6.395 3.368-11.482 3.368-15.17zm-58.867 26.5a2.686 2.686 0 011.614-.986 1.341 1.341 0 01.852.311 1.106 1.106 0 01.4.936c0 1.142-.673 2.286-2.064 3.481a5.24 5.24 0 01-3.186 1.3 15.118 15.118 0 012.384-5.047zm-51.174-25.857a2.915 2.915 0 01.179 1.246 21.5 21.5 0 01-.583 4.261 40.8 40.8 0 01-3.1 9.04c1.217-9.508 2.383-14.392 3.504-14.547zm7.023 7.15c.584-6.443 1.481-10.806 2.737-13.092.27-.417.494-.624.719-.624.314 0 .583.313.808.988a23.023 23.023 0 01.986 7.585 74.707 74.707 0 01-.494 7.793 56.748 56.748 0 01-1.377 7.8 15.548 15.548 0 00-1.877-.3c-.711-.075-1.4-.133-2.082-.183.105-3.429.298-6.76.581-9.968zm-.673 16.106q0-2.1.043-4.16a27.763 27.763 0 013.479.453 38.915 38.915 0 01-3.476 8.226zm67.347 7.17a62.7 62.7 0 01-4.576 7.844c-1.751 2.547-3.276 4.052-4.623 4.469h-.179q-1.21 0-1.211-4.365a19.6 19.6 0 011.346-7.118c1.257-3.168 2.783-5.142 4.532-5.974a2.719 2.719 0 01.9-.156c1.437 0 2.737 1.4 3.859 4.156l.044.208zm24.632-.779a73.966 73.966 0 01-5.7 9.715c-1.794 2.6-3.275 4-4.351 4.26-.36 0-.584-.311-.764-.882a17.676 17.676 0 01-.583-4.521 15.9 15.9 0 01.941-5.4c1.346-3.948 3.411-6.545 6.1-7.844a4.351 4.351 0 011.838-.363 4.147 4.147 0 012.557 1.09zm1.8-3.637a132.624 132.624 0 011.028-16.578 42.656 42.656 0 012.692-11.585c.808-1.818 1.616-2.7 2.467-2.7 1.3 0 1.975 1.351 1.975 4.054 0 3.324-.941 7.741-2.781 13.248a131.255 131.255 0 01-5.385 13.56z" transform="translate(-263.33 -15.775)"/></svg>