<svg xmlns="http://www.w3.org/2000/svg" width="190.662" height="61.015" viewBox="0 0 190.662 61.015"><g id="australian_own" data-name="australian own" transform="translate(-744.465 -10.981)"><g id="shipping_icon" data-name="shipping icon" transform="translate(801.127 56)"><text id="DESIGNED_OWNED_" data-name="DESIGNED + OWNED" transform="translate(0 12)" fill="#fff" font-size="12" font-family="Montserrat-Medium, Montserrat" font-weight="500"><tspan x="0" y="0">DESIGNED + OWNED</tspan></text></g><g id="Компонент_5_1" data-name="Компонент 5 – 1" transform="translate(745.466 32.089)" fill="none" stroke="#fff" stroke-linecap="round" stroke-linejoin="round"><path id="Контур_62" data-name="Контур 62" d="M11.67 27.635c.336-.056 4.464-1.524 6.228-2.059 2.148-.652 3.348-.185 4.584 1.647.162.239.3.491.472.725.9 1.25 1.147 1.3 2.5.547.758-.423.887-.391 1.3.433.388.772.718 1.574 1.124 2.336a4.286 4.286 0 003.755 2.378c.574.033 2.306.026 2.593.037a5.772 5.772 0 005.4-2.784c.84-1.308 1.652-2.634 2.48-3.95a9.356 9.356 0 001.441-6.442 14.025 14.025 0 00-.819-2.606l-2.056-3.436a11.166 11.166 0 00-1.045-1.587 13.615 13.615 0 01-2.154-4.687 21.149 21.149 0 00-.525-2.182c-.191-.5-.53-1.176-.951-1.312-1.231-.394-1.488-1.3-1.64-2.363a7.607 7.607 0 00-.191-1.018c-.151-.523-.072-1.32-.806-1.308-.264 0-.585.751-.761 1.2-.539 1.4-.979 2.835-1.536 4.225-.539 1.342-1.333 1.582-2.6.861-.5-.285-.954-.648-1.447-.948a1.812 1.812 0 01-1.019-2.129 2.273 2.273 0 00-.52-1.96 4 4 0 00-5.3-.336c-.713.584-1.432 1.161-2.128 1.766a2.127 2.127 0 01-2.1.514c-1.6-.528-2.662.2-3.607 1.331-.368.443-.719.9-1.091 1.339-3.7 4.365-2.193 3.793-7.953 6.3A14.1 14.1 0 001.787 13a3.441 3.441 0 00-1.783 3.326 11.535 11.535 0 00.648 3.006c.412 1.195 1 2.331 1.5 3.493.669 1.541 1.252 3.039.7 4.822-.391 1.253.173 1.925 1.44 2.322 1.713.536 3.163-.153 4.564-1.016z" stroke-width="2"/><path id="Контур_63" data-name="Контур 63" d="M32.037 35.565s3 .773 3.924.08-.693 3-1.616 3.463-2.308-3.543-2.308-3.543z" stroke-width="1.5"/></g><text id="australian" transform="translate(803.296 46.281)" fill="#fff" stroke="#fff" stroke-miterlimit="10" stroke-width=".3" font-size="42" font-family="CassualSignature, Cassual Signature"><tspan x="0" y="0">australian</tspan></text></g></svg>