<svg xmlns="http://www.w3.org/2000/svg" width="183.552" height="49.429" viewBox="0 0 183.552 49.429"><g id="free_shipping" data-name="free shipping" transform="translate(-186.513 -21.571)"><g id="shipping_icon" data-name="shipping icon" transform="translate(257.5 56)"><text id="Over_100" data-name="Over $100" transform="translate(0 12)" fill="#fff" font-size="12" font-family="Montserrat-Medium, Montserrat" font-weight="500"><tspan x="0" y="0">OVER $100</tspan></text></g><g id="Компонент_3_5" data-name="Компонент 3 – 5" transform="translate(187.513 32)" fill="none" stroke="#fff" stroke-miterlimit="10" stroke-width="2"><path id="Контур_64" data-name="Контур 64" d="M493.169 509.086a4.823 4.823 0 01-4.854 4.892 4.885 4.885 0 11-.007-9.77 4.8 4.8 0 014.861 4.878z" transform="translate(-472.276 -476.125)"/><path id="Контур_65" data-name="Контур 65" d="M531.214 509.086a4.823 4.823 0 01-4.854 4.892 4.885 4.885 0 11-.007-9.77 4.8 4.8 0 014.861 4.878z" transform="translate(-481.295 -476.125)"/><path id="Контур_66" data-name="Контур 66" d="M482.252 499.889a3.285 3.285 0 01-3.285-3.285v-25.92a3.285 3.285 0 013.285-3.285H508.4c.756 0 1.68.613 1.68 1.37v11.558" transform="translate(-471.231 -467.398)"/><path id="Линия_16" data-name="Линия 16" transform="translate(20.893 32.491)" d="M19.231 0H0"/><path id="Контур_67" data-name="Контур 67" d="M542.3 491.255v11a3.285 3.285 0 01-3.285 3.285h-4.753" transform="translate(-484.339 -473.054)"/><path id="Прямоугольник_450" data-name="Прямоугольник 450" d="M3.537 0h3.212a12.4 12.4 0 0112.4 12.4v0a3.537 3.537 0 01-3.537 3.537H3.537A3.537 3.537 0 010 12.4V3.537A3.537 3.537 0 013.537 0z" transform="translate(38.84 6.865)"/><path id="Линия_17" data-name="Линия 17" transform="translate(0 8.149)" stroke-linecap="round" d="M0 0h20.732"/><path id="Линия_18" data-name="Линия 18" transform="translate(10.691 14.337)" stroke-linecap="round" d="M0 0h11.418"/><path id="Линия_19" data-name="Линия 19" transform="translate(2.204 19.289)" stroke-linecap="round" d="M0 0h17.252"/></g><g id="Сгруппировать_88" data-name="Сгруппировать 88" transform="translate(256.501 21.721)" fill="#fff" stroke="#fff" stroke-miterlimit="10" stroke-width=".3"><path id="Контур_68" data-name="Контур 68" d="M104.033 559.66a18.307 18.307 0 01-1.946-7.32 3.817 3.817 0 00-.529.254.423.423 0 01-.212.063c-.275 0-.4-.147-.4-.445a6.546 6.546 0 011-1.376 46.777 46.777 0 01-.128-3.385c0-1.27.084-2.751.254-4.421a7.285 7.285 0 011.227-3.789 1.43 1.43 0 011.08-.55c.55 0 .825.168.825.508a.488.488 0 01-.042.168.362.362 0 01-.359.255.35.35 0 01-.191-.063 1.008 1.008 0 00-.254-.043.614.614 0 00-.423.254c-.868 1.122-1.29 3.661-1.29 7.6 0 .826.021 1.694.084 2.582 2.009-2.158 3.957-3.363 5.861-3.639a.393.393 0 01.444.444c0 .254-.128.38-.36.38-1.862.276-3.808 1.608-5.861 3.978a1.127 1.127 0 01.021.276 3.818 3.818 0 012.053.634 7.292 7.292 0 012.412 2.751 6.477 6.477 0 01.763 2.941 2.8 2.8 0 01-1.927 2.9 1.3 1.3 0 01-.508.084 2.117 2.117 0 01-1.594-1.041zm1.82.149a2 2 0 001.376-2.116 6.528 6.528 0 00-2.772-4.972 2.994 2.994 0 00-1.544-.508 18.009 18.009 0 001.819 6.983c.3.444.593.655.847.655h.128a.3.3 0 00.146-.043z" transform="translate(-100.944 -530.608)"/><path id="Контур_69" data-name="Контур 69" d="M106.5 550.143a38.374 38.374 0 01.888-6.094c.021-.233.17-.338.423-.338h.063a.427.427 0 01.318.465c-.423 2.2-.719 3.935-.847 5.226l.593-1.608c1.1-3.343 2.031-5.035 2.814-5.035.359 0 .592.212.719.635a7.484 7.484 0 01.168.931c.149 1.4.509 2.094 1.122 2.094a3.247 3.247 0 00.635-.084 5.6 5.6 0 001.5-.8.556.556 0 01.254-.064.345.345 0 01.3.15.581.581 0 01.105.254.415.415 0 01-.191.359 4.944 4.944 0 01-2.56 1.036 1.526 1.526 0 01-.7-.149 1.724 1.724 0 01-.952-1.142 8.483 8.483 0 01-.338-1.544 6.654 6.654 0 00-.128-.763 17.728 17.728 0 00-1.967 4.4c-.3.825-.529 1.46-.719 1.9-.339.806-.635 1.207-.889 1.207l-.063.021c-.381 0-.548-.359-.548-1.057z" transform="translate(-99.621 -529.64)"/><path id="Контур_70" data-name="Контур 70" d="M113.522 550.289a4.337 4.337 0 01-.529-2.2 7.831 7.831 0 01.254-1.883.536.536 0 01.084-.338 6.718 6.718 0 011.418-2.709 1.952 1.952 0 011.354-.656 1.639 1.639 0 01.846.254 1.23 1.23 0 01.572 1.038 1.813 1.813 0 01-.149.719 3.564 3.564 0 01-3.215 2.1h-.149a6.754 6.754 0 00-.191 1.523 3.6 3.6 0 00.381 1.714 1.263 1.263 0 001.078.613c1.185 0 3.026-1.608 5.523-4.845a.412.412 0 01.338-.17.56.56 0 01.275.105.4.4 0 01.128.318.32.32 0 01-.084.233c-2.6 3.449-4.676 5.184-6.222 5.184a2.011 2.011 0 01-1.712-1zm2.2-5.034c.656-.488.973-.953.973-1.419a.427.427 0 00-.189-.38.693.693 0 00-.4-.128 1.322 1.322 0 00-.761.4 5.841 5.841 0 00-1.122 2.053 2.691 2.691 0 001.499-.527z" transform="translate(-98.075 -529.701)"/><path id="Контур_71" data-name="Контур 71" d="M119.52 550.289a4.35 4.35 0 01-.529-2.2 7.892 7.892 0 01.254-1.883.528.528 0 01.085-.338 6.688 6.688 0 011.418-2.709 1.951 1.951 0 011.353-.656 1.64 1.64 0 01.847.254 1.229 1.229 0 01.571 1.038 1.833 1.833 0 01-.147.719 3.568 3.568 0 01-3.217 2.1h-.147a6.755 6.755 0 00-.191 1.523 3.6 3.6 0 00.38 1.714 1.265 1.265 0 001.08.613c1.185 0 3.026-1.608 5.522-4.845a.415.415 0 01.339-.17.564.564 0 01.275.105.4.4 0 01.128.318.321.321 0 01-.085.233c-2.6 3.449-4.676 5.184-6.22 5.184a2.013 2.013 0 01-1.716-1zm2.2-5.034c.656-.488.973-.953.973-1.419a.425.425 0 00-.191-.38.69.69 0 00-.4-.128 1.329 1.329 0 00-.761.4 5.861 5.861 0 00-1.122 2.053 2.692 2.692 0 001.502-.527z" transform="translate(-96.647 -529.701)"/><path id="Контур_72" data-name="Контур 72" d="M134.433 555.752q-1.205-.286-1.206-1.905c0-1.29.931-2.9 2.835-4.8a16.942 16.942 0 00-1.333-1.693 2.669 2.669 0 01-.655-1.67 2.708 2.708 0 01.634-1.652 4.363 4.363 0 011.715-1.29 2.816 2.816 0 011.078-.254 1.214 1.214 0 01.889.3.959.959 0 01.317.739c0 .509-.147.763-.444.763l-.105-.021a.418.418 0 01-.317-.443 1.609 1.609 0 00.042-.254c0-.15-.042-.213-.106-.213a1.072 1.072 0 00-.275-.041 2.877 2.877 0 00-.952.254 3.489 3.489 0 00-1.185.972 1.728 1.728 0 00-.466 1.164 2.427 2.427 0 00.761 1.46q.509.6 1.016 1.333a25.4 25.4 0 014.845-3.111.371.371 0 01.212-.062.867.867 0 01.149.042.327.327 0 01.17.168.484.484 0 01.063.212.354.354 0 01-.212.36 25.235 25.235 0 00-4.782 3.11 3.581 3.581 0 01.592 2.032 6.328 6.328 0 01-.782 2.835c-.7 1.12-1.439 1.693-2.222 1.693a1.127 1.127 0 01-.276-.028zm1.778-2.095a5.267 5.267 0 00.677-2.349 2.94 2.94 0 00-.4-1.524c-1.629 1.757-2.455 3.111-2.455 4.062 0 .721.212 1.08.656 1.1.484.002.992-.446 1.522-1.288z" transform="translate(-93.257 -529.705)"/><path id="Контур_73" data-name="Контур 73" d="M139.87 548.287a.406.406 0 01-.063-.212.5.5 0 01.042-.17 102.39 102.39 0 01-.042-2.518q0-9.806 1.756-12.631a1.3 1.3 0 01.994-.593 1.289 1.289 0 011.143.867 8.83 8.83 0 01.551 3.493c0 .254-.022.952-.064 2.053a21.973 21.973 0 01-.931 4.719 12.121 12.121 0 01-2.581 4.908q.1 1.905.254 3.555c1.122-4.083 2.37-6.115 3.745-6.115a1.25 1.25 0 011.143.784 11.618 11.618 0 01.719 1.777 12.369 12.369 0 00.74 1.841c.318.656.7.994 1.143.994.8 0 1.969-.994 3.534-3a.38.38 0 01.318-.147.566.566 0 01.275.1.374.374 0 01.126.318.426.426 0 01-.063.233c-1.671 2.2-3.068 3.3-4.169 3.3a1.994 1.994 0 01-1.777-1.207 11.135 11.135 0 01-.91-2.116 13.245 13.245 0 00-.508-1.374c-.191-.445-.381-.656-.572-.656-.4 0-.825.4-1.269 1.228a23.622 23.622 0 00-2.179 6.3.4.4 0 01-.4.317c-.489.003-.806-2.008-.955-6.048zm3.322-8.633a26.26 26.26 0 00.233-3.173 8.2 8.2 0 00-.466-3.09c-.105-.275-.233-.4-.381-.4-.105 0-.21.085-.338.254-.593.931-1.015 2.709-1.291 5.333a65.177 65.177 0 00-.317 6.558l.021 1.841a16.819 16.819 0 002.539-7.323z" transform="translate(-91.69 -532.163)"/><path id="Контур_74" data-name="Контур 74" d="M150.2 551.087a2.708 2.708 0 01-.825-2.349 12.51 12.51 0 01.126-1.418 14.524 14.524 0 01.444-2.053q.318-1.111.381-1.269a.379.379 0 01.191-.213.61.61 0 01.191-.041.38.38 0 01.147.02.365.365 0 01.275.381.355.355 0 01-.021.147 20.323 20.323 0 00-.719 2.709 8.293 8.293 0 00-.191 1.652c0 1.29.339 1.946 1 1.946a2.62 2.62 0 00.888-.254 7.585 7.585 0 001.82-1.207 30.616 30.616 0 003.026-3.025.439.439 0 01.275-.149.5.5 0 01.3.105.5.5 0 01.149.275.626.626 0 01-.105.317c-2.814 3.176-4.909 4.762-6.327 4.762a1.684 1.684 0 01-1.025-.336zm.318-9.247l.338-1.544a.371.371 0 01.381-.339c.3.042.445.17.445.423a7.3 7.3 0 01-.508 1.82.34.34 0 01-.254.084c-.274 0-.4-.148-.4-.445z" transform="translate(-89.411 -530.307)"/><path id="Контур_75" data-name="Контур 75" d="M154.418 562.3a29.63 29.63 0 00.106-2.094c.3-5.693.571-6.4.825-9.593l-.021-.084.085-.74c.444-5.077.91-7.935 1.439-8.612a.733.733 0 01.571-.3.848.848 0 01.444.107.87.87 0 01.254.233.626.626 0 01.106.38 3.054 3.054 0 01-.191.826 14.209 14.209 0 01-1.227 2.2 10.339 10.339 0 00-.149 1.08 5.956 5.956 0 012.053-2.433 2.778 2.778 0 011.353-.4 1.69 1.69 0 011.862 1.819 7.475 7.475 0 01-.487 2.433 11.323 11.323 0 013.661-1.354.421.421 0 01.3.129.372.372 0 01.128.317.36.36 0 01-.36.38 11.007 11.007 0 00-4.232 1.778 15.149 15.149 0 01-1.4 2.391q-1.174 1.588-2.031 1.587a.922.922 0 01-.889-.889c0-.931 1.227-2.158 3.66-3.661a8.309 8.309 0 00.826-3.088c-.021-.467-.149-.742-.381-.847a1.5 1.5 0 00-.656-.168 1.842 1.842 0 00-.931.295c-1.481 1.038-2.454 2.984-2.9 5.861-.3 3.577-.592 4.555-.889 10.4-.042 1.038-.084 1.737-.105 2.116a.34.34 0 01-.128.276.445.445 0 01-.275.106c-.272-.007-.421-.151-.421-.451zm5.079-13c-1.248.889-1.925 1.608-2.032 2.136 0 .045.043.064.128.064.507-.169 1.142-.909 1.907-2.2z" transform="translate(-88.211 -530.088)"/><path id="Контур_76" data-name="Контур 76" d="M161.835 562.3a29.63 29.63 0 00.106-2.094c.3-5.693.571-6.4.825-9.593l-.021-.084.085-.74c.444-5.077.91-7.935 1.439-8.612a.733.733 0 01.571-.3.849.849 0 01.444.107.87.87 0 01.254.233.626.626 0 01.106.38 3.054 3.054 0 01-.191.826 14.209 14.209 0 01-1.227 2.2 10.346 10.346 0 00-.149 1.08 5.955 5.955 0 012.053-2.433 2.778 2.778 0 011.353-.4 1.69 1.69 0 011.862 1.819 7.475 7.475 0 01-.487 2.433 11.323 11.323 0 013.661-1.354.421.421 0 01.3.129.372.372 0 01.128.317.36.36 0 01-.36.38 11.007 11.007 0 00-4.232 1.778 15.147 15.147 0 01-1.4 2.391q-1.174 1.588-2.031 1.587a.922.922 0 01-.889-.889c0-.931 1.227-2.158 3.66-3.661a8.309 8.309 0 00.826-3.088c-.021-.467-.149-.742-.381-.847a1.5 1.5 0 00-.656-.168 1.842 1.842 0 00-.931.295c-1.481 1.038-2.454 2.984-2.9 5.861-.3 3.577-.592 4.555-.889 10.4-.042 1.038-.084 1.737-.105 2.116a.34.34 0 01-.128.276.445.445 0 01-.275.106c-.272-.007-.421-.151-.421-.451zm5.079-13c-1.248.889-1.925 1.608-2.032 2.136 0 .045.043.064.128.064.507-.169 1.142-.909 1.904-2.2z" transform="translate(-86.445 -530.088)"/><path id="Контур_77" data-name="Контур 77" d="M170.932 551.087a2.708 2.708 0 01-.825-2.349 12.52 12.52 0 01.126-1.418 14.527 14.527 0 01.444-2.053q.318-1.111.381-1.269a.379.379 0 01.191-.213.61.61 0 01.191-.041.379.379 0 01.147.02.365.365 0 01.275.381.355.355 0 01-.021.147 20.331 20.331 0 00-.719 2.709 8.292 8.292 0 00-.191 1.652c0 1.29.339 1.946 1 1.946a2.62 2.62 0 00.888-.254 7.585 7.585 0 001.82-1.207 30.756 30.756 0 003.026-3.025.439.439 0 01.275-.149.5.5 0 01.3.105.5.5 0 01.149.275.626.626 0 01-.105.317c-2.814 3.176-4.909 4.762-6.327 4.762a1.684 1.684 0 01-1.025-.336zm.318-9.247l.338-1.544a.371.371 0 01.381-.339c.3.042.445.17.445.423a7.3 7.3 0 01-.508 1.82.342.342 0 01-.255.084c-.275 0-.401-.148-.401-.445z" transform="translate(-84.475 -530.307)"/><path id="Контур_78" data-name="Контур 78" d="M175.745 550.742a1.568 1.568 0 01-.084-.635 28.923 28.923 0 01.826-5.141.393.393 0 01.422-.318c.255.021.4.149.4.381l-.021.126c-.317 1.5-.571 2.835-.74 4.02a48.829 48.829 0 012.2-4.57c.614-1.078 1.249-1.608 1.862-1.608a1.138 1.138 0 011.122.847 8.266 8.266 0 01.445 1.946 10.467 10.467 0 00.3 1.5q.223.827.7.826a1.965 1.965 0 001.143-.466 8.59 8.59 0 001.946-2.2.417.417 0 01.36-.192.363.363 0 01.212.064.407.407 0 01.189.339 3.793 3.793 0 01-.783 1.227c-1.08 1.376-2.116 2.053-3.11 2.053a1.314 1.314 0 01-1.312-1.059 9 9 0 01-.445-1.967c-.189-1.4-.443-2.1-.782-2.1-.275.064-.592.36-.952.911a16.242 16.242 0 00-1.057 1.946c-.339.742-.635 1.374-.889 1.946-.381.91-.677 1.544-.868 1.883s-.381.508-.571.508a.5.5 0 01-.513-.267z" transform="translate(-83.153 -529.583)"/><path id="Контур_79" data-name="Контур 79" d="M183.783 564.986a5.1 5.1 0 01-.466-2.242 18.769 18.769 0 011.038-5.078c.677-2.245 2.37-4.909 5.1-8.021l.064-1.036.105-1.821a20.59 20.59 0 01-1.988 2.815c-.952 1.122-1.778 1.693-2.476 1.693a1.344 1.344 0 01-1.143-.719 3.816 3.816 0 01-.422-1.735 6.957 6.957 0 01.655-2.476 6.446 6.446 0 012.349-2.709 3.354 3.354 0 011.778-.592 2.274 2.274 0 011.523.592q.191-1.681.572-1.967a.575.575 0 01.359-.126c.423 0 .635.232.635.7a7.317 7.317 0 01-.868 2.709q-.253 3.332-.254 3.744a29.4 29.4 0 013.745-3.152.472.472 0 01.233-.064.371.371 0 01.317.128.559.559 0 01.106.276.407.407 0 01-.191.338 28.964 28.964 0 00-4.3 3.765 82.035 82.035 0 01-1.227 10.664c-.572 2.9-1.5 4.655-2.835 5.227a2.259 2.259 0 01-.8.149 1.77 1.77 0 01-1.609-1.062zm2.137.127c1.1-.572 1.905-2.307 2.413-5.184a84.293 84.293 0 001.015-8.909 24.06 24.06 0 00-4.57 8.042 13.408 13.408 0 00-.656 3.639 4.247 4.247 0 00.38 1.905.99.99 0 00.889.613 1.675 1.675 0 00.529-.106zm-.443-14.726a7.086 7.086 0 002.263-2.222 26.167 26.167 0 002.032-3.428.217.217 0 01-.106-.126 1.7 1.7 0 00-1.29-.719 2.094 2.094 0 00-1.333.466 6.424 6.424 0 00-2.2 2.73 4.293 4.293 0 00-.4 1.756 2.788 2.788 0 00.3 1.311.475.475 0 00.423.318 1.059 1.059 0 00.31-.086z" transform="translate(-81.33 -529.925)"/></g></g></svg>