<svg xmlns="http://www.w3.org/2000/svg" width="143.579" height="61.019" viewBox="0 0 143.579 61.019"><g id="love_it" data-name="love it" transform="translate(-1030.344 -9.981)"><g id="shipping_icon" data-name="shipping icon" transform="translate(1085.923 56)"><text id="Guaranteed" transform="translate(0 12)" fill="#fff" font-size="12" font-family="Montserrat-Medium, Montserrat" font-weight="500"><tspan x="0" y="0">GUARANTEED</tspan></text></g><g id="Компонент_4_1" data-name="Компонент 4 – 1" transform="translate(1031.345 32.089)"><path id="Контур_61" data-name="Контур 61" d="M21.379 4.444c3.075-2.516 6.191-4.7 10.313-4.369 9.7.786 14.2 11.246 8.082 19.514-3 4.06-6.893 7.469-10.422 11.133-1.863 1.934-3.838 3.759-5.714 5.682-1.6 1.643-3.127 1.723-4.781.066-4.777-4.786-9.676-9.453-14.346-14.341A14.662 14.662 0 01.065 10.281a11.147 11.147 0 0115.961-9.167 54.008 54.008 0 015.353 3.33z" fill="none" stroke="#fff" stroke-miterlimit="10" stroke-width="2"/></g><text id="love_it-2" data-name="love it" transform="translate(1088.808 46.281)" fill="#fff" stroke="#fff" stroke-miterlimit="10" stroke-width=".3" font-size="43" font-family="CassualSignature, Cassual Signature"><tspan x="0" y="0">love it</tspan></text></g></svg>