<svg xmlns="http://www.w3.org/2000/svg" width="172.932" height="65.198" viewBox="0 0 172.932 65.198"><g id="mage_to_order" data-name="mage to order" transform="translate(-465.495 -10.981)"><text id="PERSONALISED" transform="translate(519.127 68)" fill="#fff" font-size="12" font-family="Montserrat-Medium, Montserrat" font-weight="500"><tspan x="0" y="0">PERSONALISED</tspan></text><g id="Сгруппировать_96" data-name="Сгруппировать 96" transform="translate(519.127 11.281)"><text id="made_to_order" data-name="made to order" transform="translate(1 36)" fill="#fff" stroke="#fff" stroke-miterlimit="10" stroke-width=".3" font-size="44" font-family="CassualSignature, Cassual Signature"><tspan x="0" y="0">made to order</tspan></text></g><g id="Сгруппировать_95" data-name="Сгруппировать 95" transform="translate(328.463 -442.61)" fill="none" stroke="#fff" stroke-linecap="round" stroke-width="1.763"><path id="Контур_84" data-name="Контур 84" d="M178.651 488.7a2.367 2.367 0 00-.505-.016 5.775 5.775 0 00-3.309 1.389 13.328 13.328 0 00-3.351 4.1 6.891 6.891 0 01-4.279 3.142c-.017-.223-.037-.369-.037-.516q0-9.207-.01-18.415a.558.558 0 01.432-.619 9.567 9.567 0 003.185-1.836c1.663-1.531 1.7-3.506-.031-4.948a11.462 11.462 0 00-2.849-1.706 29.484 29.484 0 00-9.987-2.01 40.375 40.375 0 00-13.322 1.192 27.188 27.188 0 00-3.9 1.539 5.822 5.822 0 00-1.577 1.171 2.992 2.992 0 00-.014 4.572 9.059 9.059 0 003.365 2.017.584.584 0 01.438.66q-.014 14.128 0 28.257a.583.583 0 01-.435.661 9.474 9.474 0 00-3.22 1.875 3.077 3.077 0 000 4.867 10.155 10.155 0 003.6 2.022l6.042 1.426c.925.1 1.848.211 2.775.273A42.784 42.784 0 00165.3 516.7a14.858 14.858 0 004.438-1.81 7.451 7.451 0 001.3-1.044 2.982 2.982 0 000-4.43 9 9 0 00-3.435-2.09.589.589 0 01-.444-.662q.022-3.5 0-7" stroke-linejoin="round"/><path id="Контур_85" data-name="Контур 85" d="M145.244 479.777a38.561 38.561 0 0019.236 0" stroke-miterlimit="10"/><path id="Контур_86" data-name="Контур 86" d="M145.244 483.392a38.56 38.56 0 0019.236 0" stroke-miterlimit="10"/><path id="Контур_87" data-name="Контур 87" d="M145.244 487.007a38.56 38.56 0 0019.236 0" stroke-miterlimit="10"/><path id="Контур_88" data-name="Контур 88" d="M145.244 490.622a38.561 38.561 0 0019.236 0" stroke-miterlimit="10"/><path id="Контур_89" data-name="Контур 89" d="M145.244 494.237a38.572 38.572 0 0019.236 0" stroke-miterlimit="10"/><path id="Контур_90" data-name="Контур 90" d="M145.244 497.852a38.572 38.572 0 0019.236 0" stroke-miterlimit="10"/><path id="Контур_91" data-name="Контур 91" d="M145.244 501.467a38.572 38.572 0 0019.236 0" stroke-miterlimit="10"/><path id="Контур_92" data-name="Контур 92" d="M145.244 505.082a38.572 38.572 0 0019.236 0" stroke-miterlimit="10"/><path id="Контур_93" data-name="Контур 93" d="M145.244 508.7a38.583 38.583 0 0019.236 0" stroke-miterlimit="10"/></g></g></svg>